<svg width="541" height="68" viewBox="0 0 541 68" fill="none" xmlns="http://www.w3.org/2000/svg">
<path d="M0 2.6001H17.89C25.78 2.6001 32.31 4.1601 37.47 7.2701C42.63 10.3801 46.39 14.3901 48.75 19.2901C51.11 24.1901 52.29 29.4001 52.29 34.9401C52.29 41.0501 50.86 46.4201 48.01 51.0601C45.16 55.7001 41.34 59.2701 36.56 61.7801C31.78 64.2901 26.56 65.5401 20.91 65.5401H0V2.6001ZM19.1 55.8501C23.59 55.8501 27.56 55.0201 30.99 53.3401C34.42 51.6701 37.1 49.2101 39.03 45.9501C40.96 42.7001 41.93 38.7901 41.93 34.2401C41.93 29.2801 40.88 25.1501 38.77 21.8401C36.67 18.5301 33.99 16.0901 30.73 14.5401C27.47 12.9801 24.12 12.2101 20.66 12.2101H10.11V55.8601H19.1V55.8501Z" fill="white"/>
<path d="M89.1199 0H88.5099L60.6799 65.53H70.6199L88.3399 22.22L105.37 65.53H116.95L89.1199 0Z" fill="white"/>
<path d="M174.6 2.6001H132.85V12.2801H174.6V2.6001Z" fill="white"/>
<path d="M142.97 55.8501V38.73H174.6V29.05H132.85V65.5301H175.81V55.8501H142.97Z" fill="white"/>
<path d="M258.45 0.350098V65.5301H248.42V29.1401L226.38 60.4301H226.21L204.69 30.6101V65.5301H194.92V0.350098H195.01L226.39 44.7801L258.29 0.350098H258.45V0.350098Z" fill="white"/>
<path d="M281.36 18.1099C284.24 13.1799 288.15 9.2499 293.07 6.3099C298 3.3699 303.37 1.8999 309.19 1.8999C314.95 1.8999 320.3 3.3699 325.22 6.3099C330.15 9.2499 334.08 13.1999 337.02 18.1499C339.96 23.1099 341.43 28.4399 341.43 34.1399C341.43 39.9599 339.97 45.3199 337.06 50.2199C334.15 55.1199 330.22 59.0099 325.26 61.8899C320.3 64.7699 314.94 66.2099 309.18 66.2099C303.36 66.2099 297.99 64.7799 293.06 61.9299C288.13 59.0799 284.23 55.1999 281.35 50.2999C278.47 45.3999 277.03 40.0099 277.03 34.1399C277.04 28.3899 278.48 23.0399 281.36 18.1099ZM290.35 45.3899C292.31 48.7899 294.97 51.4999 298.35 53.5199C301.72 55.5399 305.42 56.5499 309.46 56.5499C313.44 56.5499 317.07 55.5599 320.35 53.5699C323.63 51.5799 326.24 48.8699 328.17 45.4399C330.1 42.0099 331.07 38.2499 331.07 34.1599C331.07 30.0699 330.09 26.2899 328.13 22.8399C326.17 19.3799 323.52 16.6499 320.18 14.6299C316.84 12.6099 313.18 11.5999 309.2 11.5999C305.17 11.5999 301.49 12.6099 298.18 14.6299C294.87 16.6499 292.24 19.3799 290.31 22.8399C288.38 26.2999 287.41 30.0699 287.41 34.1599C287.41 38.2399 288.39 41.9899 290.35 45.3899Z" fill="white"/>
<path d="M394.42 65.5301L380.24 43.6601H379.2H370.12V65.5301H360.01V2.6001H377.73C384.76 2.6001 390.39 4.3901 394.63 7.9601C398.86 11.5301 400.98 16.4901 400.98 22.8301C400.98 26.6901 400.16 30.2801 398.52 33.5901C396.88 36.9001 394.3 39.4501 390.78 41.2401L406.08 65.5301H394.42V65.5301ZM370.13 33.9801H379.12C383.15 33.9801 386.08 32.8701 387.89 30.6501C389.7 28.4301 390.61 25.9401 390.61 23.1701C390.61 21.5601 390.26 19.9301 389.57 18.2901C388.88 16.6501 387.7 15.2401 386.03 14.0501C384.36 12.8701 382.17 12.2801 379.46 12.2801H370.12V33.9801H370.13Z" fill="white"/>
<path d="M469.28 2.6001L445.68 45.1301V65.5301H435.65V45.1301L412.4 2.6001H424.76L441.01 33.6301L456.91 2.6001H469.28Z" fill="white"/>
<path d="M540.68 2.59994V67.7799H540.42L495.04 23.7799L495.3 65.5299H485.1V0.439941H485.62L530.83 44.9599L530.66 2.59994H540.68Z" fill="white"/>
</svg>
